# xmcd
#
# Track frame offsets:
#	150
#	12548
#	25403
#	35701
#	49419
#	59409
#	70877
#	81947
#	94045
#	108220
#	121893
#	132708
#
# Disc length: 1931 seconds
#
# Revision: 1
# Processed by: cddbd v1.5.2PL0 Copyright (c) Steve Scherf et al.
# Submitted via: audiograbber 1.83.01
#
DISCID=ad07890c
DTITLE=Johnny Horton - Greatest Hits
DYEAR=1961
DGENRE=Country
TTITLE0=North To Alaska
TTITLE1=Whispering Pines
TTITLE2=Johnny Reb
TTITLE3=The Mansion You Stole
TTITLE4=I'm Ready, If You're Willing
TTITLE5=When It's Springtime In Alaska
TTITLE6=The Balttle Of New Orleans
TTITLE7=All For The Love Of A Girl
TTITLE8=Sink The Bismarck
TTITLE9=Comanche
TTITLE10=Jim Bridger
TTITLE11=Johnny Freedom
EXTD=
EXTT0=
EXTT1=
EXTT2=
EXTT3=
EXTT4=
EXTT5=
EXTT6=
EXTT7=
EXTT8=
EXTT9=
EXTT10=
EXTT11=
PLAYORDER=
